<svg width="266" height="37" viewBox="0 0 266 37" fill="none" xmlns="http://www.w3.org/2000/svg">
<path d="M0.227273 36V1.09091H4.45455V16.6364H23.0682V1.09091H27.2955V36H23.0682V20.3864H4.45455V36H0.227273ZM65.2131 18.5455C65.2131 22.2273 64.5483 25.4091 63.2188 28.0909C61.8892 30.7727 60.0653 32.8409 57.7472 34.2955C55.429 35.75 52.7813 36.4773 49.804 36.4773C46.8267 36.4773 44.179 35.75 41.8608 34.2955C39.5426 32.8409 37.7188 30.7727 36.3892 28.0909C35.0597 25.4091 34.3949 22.2273 34.3949 18.5455C34.3949 14.8636 35.0597 11.6818 36.3892 9C37.7188 6.31818 39.5426 4.25 41.8608 2.79545C44.179 1.34091 46.8267 0.613635 49.804 0.613635C52.7813 0.613635 55.429 1.34091 57.7472 2.79545C60.0653 4.25 61.8892 6.31818 63.2188 9C64.5483 11.6818 65.2131 14.8636 65.2131 18.5455ZM61.1222 18.5455C61.1222 15.5227 60.6165 12.9716 59.6051 10.892C58.6051 8.8125 57.2472 7.23864 55.5312 6.17045C53.8267 5.10227 51.9176 4.56818 49.804 4.56818C47.6903 4.56818 45.7756 5.10227 44.0597 6.17045C42.3551 7.23864 40.9972 8.8125 39.9858 10.892C38.9858 12.9716 38.4858 15.5227 38.4858 18.5455C38.4858 21.5682 38.9858 24.1193 39.9858 26.1989C40.9972 28.2784 42.3551 29.8523 44.0597 30.9205C45.7756 31.9886 47.6903 32.5227 49.804 32.5227C51.9176 32.5227 53.8267 31.9886 55.5312 30.9205C57.2472 29.8523 58.6051 28.2784 59.6051 26.1989C60.6165 24.1193 61.1222 21.5682 61.1222 18.5455ZM72.321 1.09091H77.3665L89.2301 30.0682H89.6392L101.503 1.09091H106.548V36H102.594V9.47727H102.253L91.3438 36H87.5256L76.6165 9.47727H76.2756V36H72.321V1.09091ZM115.024 36V1.09091H136.092V4.84091H119.251V16.6364H135.001V20.3864H119.251V32.25H136.365V36H115.024ZM141.803 4.84091V1.09091H167.984V4.84091H157.007V36H152.78V4.84091H141.803ZM174.509 36V1.09091H195.577V4.84091H178.736V16.6364H194.486V20.3864H178.736V32.25H195.849V36H174.509ZM231.287 12H227.06C226.81 10.7841 226.372 9.71591 225.747 8.79545C225.134 7.875 224.384 7.10227 223.497 6.47727C222.622 5.84091 221.651 5.36364 220.582 5.04545C219.514 4.72727 218.401 4.56818 217.241 4.56818C215.128 4.56818 213.213 5.10227 211.497 6.17045C209.793 7.23864 208.435 8.8125 207.423 10.892C206.423 12.9716 205.923 15.5227 205.923 18.5455C205.923 21.5682 206.423 24.1193 207.423 26.1989C208.435 28.2784 209.793 29.8523 211.497 30.9205C213.213 31.9886 215.128 32.5227 217.241 32.5227C218.401 32.5227 219.514 32.3636 220.582 32.0455C221.651 31.7273 222.622 31.2557 223.497 30.6307C224.384 29.9943 225.134 29.2159 225.747 28.2955C226.372 27.3636 226.81 26.2955 227.06 25.0909H231.287C230.969 26.875 230.389 28.4716 229.548 29.8807C228.707 31.2898 227.662 32.4886 226.412 33.4773C225.162 34.4545 223.759 35.1989 222.202 35.7102C220.656 36.2216 219.003 36.4773 217.241 36.4773C214.264 36.4773 211.616 35.75 209.298 34.2955C206.98 32.8409 205.156 30.7727 203.827 28.0909C202.497 25.4091 201.832 22.2273 201.832 18.5455C201.832 14.8636 202.497 11.6818 203.827 9C205.156 6.31818 206.98 4.25 209.298 2.79545C211.616 1.34091 214.264 0.613635 217.241 0.613635C219.003 0.613635 220.656 0.869317 222.202 1.38068C223.759 1.89205 225.162 2.64205 226.412 3.63068C227.662 4.60795 228.707 5.80114 229.548 7.21023C230.389 8.60795 230.969 10.2045 231.287 12ZM238.118 36V1.09091H242.345V16.6364H260.959V1.09091H265.186V36H260.959V20.3864H242.345V36H238.118Z" fill="black"/>
</svg>
